Patient4_TMGait_0pt8_01_left_46_GRF.mot
version=1
nRows=39
nColumns=19
inDegrees=no
endheader
time	F1x	F1y	F1z	M1x	M1y	M1z	F2x	F2y	F2z	M2x	M2y	M2z	EC1x	EC1y	EC1z	EC2x	EC2y	EC2z
51.21	-5.0947	1.8242	-4.4337	-0.44764	2.9752	4.7427	-34.998	725.9902	-53.4429	254.4279	77.1661	843.4458	-0.0592	0.0182	-0.0073	-0.0462	0.0165	0.9585
51.2212	-3.4962	2.1147	-3.0405	-0.5766	1.9098	3.9826	-34.1638	729.8406	-53.7236	256.6992	75.6753	842.873	-0.0592	0.0182	-0.0073	-0.0462	0.0165	0.9585
51.2324	-2.2156	2.3798	-1.7896	-0.7168	0.95174	3.4602	-33.0272	735.2481	-53.5254	259.4705	73.6847	843.2628	-0.0592	0.0182	-0.0073	-0.0462	0.0165	0.9585
51.2436	-1.267	2.5967	-0.78988	-0.84401	0.18832	3.1378	-31.4575	741.9405	-52.8631	262.6213	71.2522	844.4323	-0.0592	0.0182	-0.0073	-0.0462	0.0165	0.9585
51.2549	-0.6524	2.785	-0.068509	-0.95209	-0.36479	3.0046	-29.3295	749.3645	-51.8516	265.9588	68.471	845.8686	-0.0592	0.0182	-0.0073	-0.0462	0.0165	0.9585
51.2661	-0.29025	2.9358	0.3907	-1.0354	-0.71114	2.9952	-26.4922	756.745	-50.6387	269.222	65.4194	846.7791	-0.0592	0.0182	-0.0073	-0.0462	0.0165	0.9585
51.2773	-0.15386	3.0593	0.65953	-1.0964	-0.91779	3.0914	-22.8426	763.2152	-49.3716	272.1203	62.1683	846.2785	-0.0592	0.0182	-0.0073	-0.0462	0.0165	0.9585
51.2885	-0.15602	3.1076	0.78503	-1.1252	-1.0161	3.1761	-18.3145	768.0135	-48.1542	274.397	58.7555	843.6004	-0.0592	0.0182	-0.0073	-0.0462	0.0165	0.9585
51.2997	-0.28613	3.0383	0.84792	-1.1067	-1.0891	3.189	-12.9527	770.674	-47.0705	275.8889	55.2454	838.3491	-0.0592	0.0182	-0.0073	-0.0462	0.0165	0.9585
51.3109	-0.47726	2.775	0.87762	-1.0141	-1.1614	2.9637	-6.9079	771.0112	-46.1878	276.5291	51.737	830.4635	-0.0592	0.0182	-0.0073	-0.0462	0.0165	0.9585
51.3221	-0.738	2.2582	0.91658	-0.81719	-1.2853	2.4268	-0.44117	769.1242	-45.5883	276.337	48.3921	820.2329	-0.0592	0.0182	-0.0073	-0.0462	0.0165	0.9585
51.3334	-1.0005	1.3866	0.9822	-0.47921	-1.4641	1.4192	6.1046	765.2232	-45.3473	275.3699	45.403	808.0665	-0.0592	0.0182	-0.0073	-0.0462	0.0165	0.9585
51.3446	-1.2678	0.11426	1.082	0.021239	-1.6986	-0.1096	12.3437	759.6368	-45.5292	273.7217	42.974	794.5186	-0.0592	0.0182	-0.0073	-0.0462	0.0165	0.9585
51.3558	-1.4349	-1.6039	1.2115	0.69487	-1.9414	-2.2413	17.926	752.7737	-46.1625	271.5203	41.2668	780.1938	-0.0592	0.0182	-0.0073	-0.0462	0.0165	0.9585
51.367	-1.448	-3.6682	1.3331	1.5034	-2.1157	-4.8332	22.5798	745.1165	-47.2175	268.9295	40.3524	765.7182	-0.0592	0.0182	-0.0073	-0.0462	0.0165	0.9585
51.3782	-1.1393	-5.8638	1.4022	2.3555	-2.0951	-7.6305	26.2062	737.2088	-48.6384	266.1469	40.212	751.6881	-0.0592	0.0182	-0.0073	-0.0462	0.0165	0.9585
51.3894	-0.37739	-7.6667	1.3204	3.0484	-1.6962	-9.9609	28.8394	729.6372	-50.3166	263.4006	40.713	738.6729	-0.0592	0.0182	-0.0073	-0.0462	0.0165	0.9585
51.4006	1.0478	-8.2822	0.98892	3.2629	-0.70551	-10.8337	30.6724	723.0505	-52.1333	260.945	41.6531	727.2523	-0.0592	0.0182	-0.0073	-0.0462	0.0165	0.9585
51.4119	3.305	-6.4898	0.24913	2.5171	1.1412	-8.6801	31.9776	718.0237	-53.9526	259.0106	42.7778	717.8893	-0.0592	0.0182	-0.0073	-0.0462	0.0165	0.9585
51.4231	6.5536	-0.72496	-1.0383	0.18912	4.0839	-1.5339	33.0817	714.95	-55.66	257.7547	43.8343	710.8408	-0.0592	0.0182	-0.0073	-0.0462	0.0165	0.9585
51.4343	10.7631	10.9242	-3.0276	-4.4725	8.2974	13.0399	34.3175	713.8999	-57.1364	257.212	44.5694	706.0414	-0.0592	0.0182	-0.0073	-0.0462	0.0165	0.9585
51.4455	15.6947	30.4359	-5.7862	-12.2435	13.7578	37.5412	35.9451	714.4325	-58.2895	257.2269	44.794	702.9507	-0.0592	0.0182	-0.0073	-0.0462	0.0165	0.9585
51.4567	20.6521	59.451	-9.2516	-23.7576	20.0907	74.0774	38.1431	715.5289	-59.0337	257.438	44.3654	700.4842	-0.0592	0.0182	-0.0073	-0.0462	0.0165	0.9585
51.4679	24.3952	98.5203	-13.1175	-39.2095	26.3879	123.3675	40.9192	715.7498	-59.2321	257.3374	43.153	697.2132	-0.0592	0.0182	-0.0073	-0.0462	0.0165	0.9585
51.4791	24.9735	146.1469	-16.7016	-57.9734	31.0071	183.5781	44.1709	713.3604	-58.7362	256.3151	41.0646	691.4648	-0.0592	0.0182	-0.0073	-0.0462	0.0165	0.9585
51.4904	20.6561	198.4386	-18.8948	-78.4671	31.9089	249.8798	47.6586	706.5427	-57.3548	253.7344	38.0247	681.5506	-0.0592	0.0182	-0.0073	-0.0462	0.0165	0.9585
51.5016	11.9522	250.2764	-18.4368	-98.5975	27.7189	315.8719	51.1181	693.6042	-54.9635	249.0029	34.0429	665.9041	-0.0592	0.0182	-0.0073	-0.0462	0.0165	0.9585
51.5128	1.4704	296.5595	-14.5218	-116.3355	18.4811	374.9159	54.2401	673.3081	-51.5278	241.6821	29.2326	643.4372	-0.0592	0.0182	-0.0073	-0.0462	0.0165	0.9585
51.524	-8.7038	333.7142	-7.7764	-130.3443	5.8253	422.1451	56.7832	645.0047	-47.1833	231.5351	23.8437	613.6096	-0.0592	0.0182	-0.0073	-0.0462	0.0165	0.9585
51.5352	-17.0706	361.0935	0.57011	-140.4579	-8.074	456.4604	58.5039	608.7996	-42.1503	218.5851	18.1858	576.6197	-0.0592	0.0182	-0.0073	-0.0462	0.0165	0.9585
51.5464	-23.2963	380.7614	9.1367	-147.5581	-21.3046	480.461	59.264	565.4938	-36.6911	203.1043	12.5694	533.2901	-0.0592	0.0182	-0.0073	-0.0462	0.0165	0.9585
51.5576	-27.4348	395.8423	16.8718	-152.9486	-32.5874	498.0979	58.8795	516.5048	-31.0718	185.5854	7.3109	485.0377	-0.0592	0.0182	-0.0073	-0.0462	0.0165	0.9585
51.5689	-30.1402	409.6034	23.1403	-157.9475	-41.3362	513.6132	57.2785	463.6139	-25.5319	166.6597	2.6628	433.571	-0.0592	0.0182	-0.0073	-0.0462	0.0165	0.9585
51.5801	-31.7667	424.5404	27.4062	-163.5688	-47.0941	530.0759	54.3462	408.8677	-20.266	147.0532	-1.1655	380.8729	-0.0592	0.0182	-0.0073	-0.0462	0.0165	0.9585
51.5913	-32.7054	442.3054	29.8349	-170.4335	-50.1961	549.6142	50.2005	354.3125	-15.444	127.5	-4.0664	328.8279	-0.0592	0.0182	-0.0073	-0.0462	0.0165	0.9585
51.6025	-33.0781	463.8473	30.7712	-178.8672	-51.171	573.3114	44.9746	301.9131	-11.2521	108.6977	-5.9457	279.2578	-0.0592	0.0182	-0.0073	-0.0462	0.0165	0.9585
51.6137	-33.0325	489.4493	30.9776	-188.9017	-51.0065	601.5589	39.0522	253.2563	-7.8235	91.2192	-6.8476	233.5412	-0.0592	0.0182	-0.0073	-0.0462	0.0165	0.9585
51.6249	-32.6911	518.6423	31.323	-200.2831	-50.8098	633.7208	32.7894	209.4963	-5.2466	75.4733	-6.8617	192.7012	-0.0592	0.0182	-0.0073	-0.0462	0.0165	0.9585
51.6361	-32.3494	550.377	32.5311	-212.5467	-51.5731	668.5152	26.6507	171.1141	-3.4616	61.6437	-6.2214	157.0473	-0.0592	0.0182	-0.0073	-0.0462	0.0165	0.9585
